<svg width="254" height="318" viewBox="0 0 254 318" fill="none" xmlns="http://www.w3.org/2000/svg">
<path d="M187.452 112.445H141.732V66.6528C141.732 63.8544 139.446 61.8192 136.906 61.8192H117.348C114.554 61.8192 112.522 64.1088 112.522 66.6528V112.445H66.802C64.008 112.445 61.976 114.734 61.976 117.278V136.867C61.976 139.666 64.262 141.701 66.802 141.701H112.522V187.493C112.522 190.291 114.808 192.326 117.348 192.326H136.906C139.7 192.326 141.732 190.037 141.732 187.493V141.701H187.452C190.246 141.701 192.278 139.411 192.278 136.867V117.278C192.278 114.734 189.992 112.445 187.452 112.445Z" fill="black"/>
<path d="M211.582 6.36H42.418C22.606 6.36 6.35 22.6416 6.35 42.4848V211.661C6.35 231.504 22.606 247.786 42.418 247.786H211.328C231.14 247.786 247.396 231.504 247.396 211.661V42.4848C247.65 22.6416 231.394 6.36 211.582 6.36ZM218.44 211.915C218.44 215.731 215.392 218.784 211.582 218.784H42.418C38.608 218.784 35.56 215.731 35.56 211.915V42.4848C35.56 38.6688 38.608 35.616 42.418 35.616H211.328C215.138 35.616 218.186 38.6688 218.186 42.4848V211.915H218.44Z" fill="black"/>
</svg>
