<svg width="290" height="363" viewBox="0 0 290 363" fill="none" xmlns="http://www.w3.org/2000/svg">
<path d="M145 24.2C82.1667 24.2 30.2083 76.23 30.2083 139.15C30.2083 202.07 82.1667 254.1 145 254.1C207.833 254.1 259.792 202.07 259.792 139.15C259.792 76.23 207.833 24.2 145 24.2ZM145 229.9C95.4583 229.9 54.375 188.76 54.375 139.15C54.375 89.54 95.4583 48.4 145 48.4C194.542 48.4 235.625 89.54 235.625 139.15C235.625 188.76 194.542 229.9 145 229.9Z" fill="#010101"/>
<path d="M195.75 88.33C190.917 83.49 183.667 83.49 178.833 88.33L145 122.21L111.167 88.33C106.333 83.49 99.0833 83.49 94.25 88.33C89.4167 93.17 89.4167 100.43 94.25 105.27L128.083 139.15L94.25 173.03C89.4167 177.87 89.4167 185.13 94.25 189.97C96.6667 192.39 99.0833 193.6 102.708 193.6C106.333 193.6 108.75 192.39 111.167 189.97L145 156.09L178.833 189.97C181.25 192.39 184.875 193.6 187.292 193.6C189.708 193.6 193.333 192.39 195.75 189.97C200.583 185.13 200.583 177.87 195.75 173.03L161.917 139.15L195.75 105.27C200.583 100.43 200.583 93.17 195.75 88.33Z" fill="#010101"/>
</svg>
