<svg width="197" height="196" viewBox="0 0 197 196" fill="none" xmlns="http://www.w3.org/2000/svg">
<path d="M0.953125 36.65C0.988728 30.372 3.50074 24.3613 7.9441 19.922C12.3875 15.4828 18.4037 12.9731 24.6875 12.9375H78.9375C81.6352 12.9375 84.2225 14.0082 86.1301 15.914C88.0377 17.8199 89.1094 20.4047 89.1094 23.1C89.1094 25.7953 88.0377 28.3801 86.1301 30.286C84.2225 32.1918 81.6352 33.2625 78.9375 33.2625H24.6875C23.7883 33.2625 22.9258 33.6194 22.29 34.2547C21.6541 34.8899 21.2969 35.7516 21.2969 36.65V172.15C21.2969 173.048 21.6541 173.91 22.29 174.545C22.9258 175.181 23.7883 175.537 24.6875 175.537H160.312C161.212 175.537 162.074 175.181 162.71 174.545C163.346 173.91 163.703 173.048 163.703 172.15V117.95C163.703 115.255 164.775 112.67 166.682 110.764C168.59 108.858 171.177 107.787 173.875 107.787C176.573 107.787 179.16 108.858 181.068 110.764C182.975 112.67 184.047 115.255 184.047 117.95V172.15C184.011 178.428 181.499 184.439 177.056 188.878C172.613 193.317 166.596 195.827 160.312 195.862H24.6875C18.4037 195.827 12.3875 193.317 7.9441 188.878C3.50074 184.439 0.988728 178.428 0.953125 172.15V36.65ZM154.888 3.72349L193.269 42.07C195.174 43.9755 196.244 46.5584 196.244 49.2515C196.244 51.9446 195.174 54.5275 193.269 56.433L97.3825 152.231C95.4767 154.138 92.8912 155.21 90.1944 155.212H51.8125C49.1257 155.177 46.5588 154.095 44.6587 152.197C42.7587 150.299 41.6758 147.734 41.6406 145.05V106.703C41.643 104.009 42.7162 101.426 44.6244 99.522L140.511 3.72349C142.418 1.82039 145.004 0.751434 147.699 0.751434C150.395 0.751434 152.98 1.82039 154.888 3.72349V3.72349ZM171.705 49.2515L147.699 25.268L61.9844 110.904V134.887H85.99L171.705 49.2515Z" fill="black"/>
</svg>
